<?xml version="1.0" standalone="no"?>
<!DOCTYPE svg PUBLIC "-//W3C//DTD SVG 20010904//EN"
 "http://www.w3.org/TR/2001/REC-SVG-20010904/DTD/svg10.dtd">
<svg version="1.0" xmlns="http://www.w3.org/2000/svg"
 width="453.000000pt" height="283.000000pt" viewBox="0 0 453.000000 283.000000"
 preserveAspectRatio="xMidYMid meet">

<g transform="translate(0.000000,283.000000) scale(0.100000,-0.100000)"
fill="#000000" stroke="none">
<path d="M0 1415 l0 -1415 2265 0 2265 0 0 1415 0 1415 -2265 0 -2265 0 0
-1415z m2545 939 c237 -240 432 -441 434 -446 2 -6 -192 -206 -430 -444 l-434
-434 -437 0 c-241 0 -438 3 -438 7 0 4 190 198 423 430 232 233 422 430 422
438 0 9 -189 207 -420 441 -231 235 -421 431 -423 438 -2 8 111 10 435 8 l438
-2 430 -436z m-1448 224 c-9 -35 -24 -97 -33 -138 -8 -41 -19 -85 -24 -97 -5
-11 -6 -24 -3 -27 4 -3 39 -6 80 -6 l73 0 0 -100 0 -99 -97 -3 -97 -3 -12 -55
c-7 -30 -15 -74 -19 -97 l-6 -42 88 -3 88 -3 0 -95 0 -95 -115 -5 c-131 -6
-116 9 -146 -135 -9 -44 -21 -97 -26 -117 l-9 -38 -99 0 c-77 0 -100 3 -100
13 0 8 11 65 25 127 36 163 42 150 -68 150 l-93 0 -28 -127 c-15 -71 -29 -136
-32 -145 -5 -16 -19 -18 -110 -18 -57 0 -104 3 -104 6 0 3 4 24 9 47 12 50 40
183 47 214 4 21 1 22 -78 25 l-83 3 0 95 0 95 106 3 106 3 18 77 c9 42 19 87
22 99 5 21 2 22 -84 25 l-88 3 -3 97 -3 97 113 3 112 3 7 30 c4 17 17 75 29
130 12 55 27 117 33 138 l10 37 104 0 c56 0 103 -3 103 -8 0 -8 -18 -91 -45
-212 -10 -41 -20 -85 -22 -98 -5 -23 -5 -23 87 -20 105 3 95 -6 118 103 6 28
18 82 27 120 9 39 18 80 21 92 4 21 10 22 102 25 53 2 101 0 106 -4 5 -4 2
-34 -7 -70z m2260 -157 c104 -93 271 -243 373 -335 102 -91 185 -170 185 -174
0 -4 -29 -34 -65 -66 -168 -153 -166 -151 -140 -154 62 -6 143 -38 180 -70 60
-50 80 -97 80 -182 0 -86 -21 -132 -81 -182 l-42 -35 67 -97 c37 -54 65 -100
62 -103 -11 -12 -185 -6 -199 6 -9 6 -37 45 -64 86 l-48 75 -52 0 -53 0 0 -85
c0 -50 -4 -85 -10 -86 -5 0 -46 0 -90 0 -44 0 -85 0 -90 0 -7 1 -10 64 -8 191
2 105 1 190 -2 190 -3 0 -47 -38 -99 -85 l-95 -85 -373 0 c-210 0 -373 4 -373
9 0 7 142 138 359 329 14 13 42 38 61 55 19 18 99 90 177 160 112 101 140 131
130 140 -10 10 -132 120 -257 231 -410 366 -470 421 -470 430 0 3 169 6 375 6
l375 0 187 -169z m1124 -735 c2 -2 2 -125 -1 -273 l-5 -268 -30 -44 c-47 -69
-108 -96 -220 -96 -79 0 -97 4 -145 28 -30 15 -63 37 -72 48 -17 20 -16 23 30
79 43 54 72 74 72 51 0 -17 67 -51 101 -51 19 0 43 7 54 16 18 14 20 29 23
189 l3 174 -113 3 -113 3 -3 73 -3 72 209 0 c115 0 211 -2 213 -4z m-1437
-746 c45 -17 66 -46 66 -93 0 -78 -80 -125 -165 -97 -38 12 -75 59 -75 93 0
73 96 127 174 97z m-1439 -435 l0 -380 -95 0 -95 0 -3 370 c-1 203 0 376 3
383 3 9 29 12 97 10 l93 -3 0 -380z m-1127 339 c73 -15 125 -35 135 -51 3 -5
-9 -41 -25 -80 -26 -62 -33 -71 -48 -63 -76 41 -224 57 -268 29 -30 -19 -29
-64 1 -83 12 -7 56 -21 97 -31 218 -50 276 -97 274 -227 0 -55 -5 -73 -27
-107 -52 -78 -155 -121 -291 -121 -112 0 -268 42 -290 79 -6 9 44 128 60 143
4 4 19 1 33 -7 78 -43 183 -64 255 -51 39 7 70 43 61 68 -8 20 -62 43 -150 63
-186 43 -257 105 -254 225 2 107 90 193 222 219 67 14 132 12 215 -5z m2180
-111 l3 -72 62 -3 c34 -2 61 -6 60 -10 -2 -5 -3 -37 -3 -73 l0 -65 -60 0 -60
0 0 -104 c0 -126 9 -142 76 -132 46 6 44 8 73 -83 15 -47 15 -47 -21 -62 -43
-18 -164 -15 -209 4 -91 40 -119 105 -119 277 l0 99 -37 3 -38 3 -3 73 -3 72
41 0 40 0 0 68 c0 38 3 72 7 76 4 4 48 5 98 4 l90 -3 3 -72z m-1547 -57 c143
-44 220 -157 206 -305 -6 -74 -35 -128 -92 -179 -151 -133 -419 -87 -501 85
-54 114 -31 245 59 331 75 72 217 101 328 68z m2501 -4 c114 -41 185 -129 195
-242 21 -231 -225 -386 -453 -285 -101 44 -157 120 -170 226 -21 177 116 317
311 317 40 0 90 -7 117 -16z m773 -17 c35 -21 56 -45 74 -80 25 -48 26 -55 26
-250 l0 -200 -95 0 -95 0 -5 178 c-5 173 -6 179 -29 198 -29 23 -88 25 -120 3
-42 -30 -51 -71 -51 -234 l0 -150 -87 0 c-49 0 -94 4 -101 8 -9 7 -12 69 -10
278 l3 269 93 3 c92 3 92 3 92 -22 l0 -25 58 30 c50 26 66 29 128 27 58 -3 80
-9 119 -33z m-2455 -153 l5 -174 28 -24 c15 -13 38 -24 51 -24 33 0 89 41 97
70 4 14 7 94 8 178 l1 153 98 -3 97 -3 0 -275 0 -275 -90 0 c-86 0 -90 1 -93
22 -4 26 -14 29 -31 9 -6 -7 -36 -21 -67 -31 -124 -39 -249 22 -290 141 -10
27 -14 95 -14 227 l0 188 98 -3 97 -3 5 -173z m1160 -102 l0 -280 -84 0 c-46
0 -91 3 -100 6 -14 5 -16 39 -16 273 0 147 3 271 7 274 3 4 48 7 100 7 l93 0
0 -280z"/>
<path d="M585 2078 c-3 -18 -13 -61 -21 -96 -8 -34 -12 -67 -9 -72 9 -15 171
-13 182 3 5 6 18 48 28 92 10 44 20 86 22 93 4 9 -19 12 -95 12 l-100 0 -7
-32z"/>
<path d="M2625 2482 c28 -26 76 -70 107 -97 262 -230 517 -462 517 -472 1 -9
-337 -321 -528 -488 -25 -22 -66 -59 -91 -82 l-45 -43 281 0 281 0 106 96 c59
52 107 100 108 107 0 7 1 50 2 97 l2 85 109 3 109 3 80 72 c44 40 99 89 121
110 l41 38 -36 32 c-39 34 -406 364 -425 382 -35 32 -174 156 -200 179 l-32
26 -278 0 -279 0 50 -48z"/>
<path d="M3564 1527 c-3 -8 -4 -51 -2 -97 l3 -84 70 3 c94 3 109 8 128 41 37
61 10 124 -58 140 -60 14 -135 12 -141 -3z"/>
<path d="M938 505 c-39 -36 -55 -96 -39 -143 27 -77 87 -107 155 -78 48 20 69
64 64 134 -4 47 -10 60 -37 84 -42 38 -104 39 -143 3z"/>
<path d="M3427 509 c-15 -11 -31 -38 -38 -61 -30 -114 58 -209 153 -164 82 40
92 177 16 230 -32 23 -100 20 -131 -5z"/>
</g>
</svg>
